<svg width="19" height="19" viewBox="0 0 19 19" fill="none" xmlns="http://www.w3.org/2000/svg">
<path d="M10.6875 17.2188H8.31252C8.15504 17.2188 8.00402 17.2813 7.89267 17.3927C7.78132 17.504 7.71877 17.655 7.71877 17.8125C7.71877 17.97 7.78132 18.121 7.89267 18.2324C8.00402 18.3437 8.15504 18.4063 8.31252 18.4063H10.6875C10.845 18.4063 10.996 18.3437 11.1074 18.2324C11.2187 18.121 11.2813 17.97 11.2813 17.8125C11.2813 17.655 11.2187 17.504 11.1074 17.3927C10.996 17.2813 10.845 17.2188 10.6875 17.2188ZM11.2813 15.4375H7.71877C7.56129 15.4375 7.41027 15.5001 7.29892 15.6114C7.18757 15.7228 7.12502 15.8738 7.12502 16.0313C7.12502 16.1887 7.18757 16.3398 7.29892 16.4511C7.41027 16.5625 7.56129 16.625 7.71877 16.625H11.2813C11.4387 16.625 11.5898 16.5625 11.7011 16.4511C11.8125 16.3398 11.875 16.1887 11.875 16.0313C11.875 15.8738 11.8125 15.7228 11.7011 15.6114C11.5898 15.5001 11.4387 15.4375 11.2813 15.4375ZM13.709 2.3264C12.5931 1.20904 11.0983 0.593767 9.50002 0.593767C8.71977 0.591907 7.94685 0.744216 7.22564 1.04194C6.50443 1.33967 5.84914 1.77695 5.29742 2.32867C4.7457 2.88039 4.30842 3.53568 4.01069 4.25689C3.71297 4.9781 3.56066 5.75102 3.56252 6.53127C3.56252 8.26131 4.22566 9.87965 5.38088 10.971L5.54267 11.1228C6.21101 11.7477 7.12502 12.6038 7.12502 13.3594V14.25C7.12502 14.4075 7.18757 14.5585 7.29892 14.6699C7.41027 14.7812 7.56129 14.8438 7.71877 14.8438H8.60939C8.68813 14.8438 8.76364 14.8125 8.81931 14.7568C8.87499 14.7011 8.90627 14.6256 8.90627 14.5469V10.1984C8.90629 10.1384 8.8881 10.0797 8.85412 10.0303C8.82013 9.98077 8.77194 9.94275 8.7159 9.92121C8.37303 9.78134 8.04732 9.60267 7.74511 9.38869C7.6772 9.34532 7.61883 9.28858 7.57354 9.22193C7.52826 9.15528 7.49702 9.08011 7.48172 9.00099C7.46642 8.92188 7.46739 8.84048 7.48456 8.76175C7.50173 8.68302 7.53474 8.60861 7.58159 8.54305C7.62844 8.47749 7.68815 8.42215 7.75707 8.38041C7.82599 8.33866 7.90269 8.31138 7.9825 8.30023C8.0623 8.28908 8.14354 8.29429 8.22126 8.31554C8.29899 8.33679 8.37158 8.37364 8.43461 8.42385C8.70922 8.6183 9.23802 8.90627 9.50002 8.90627C9.76201 8.90627 10.2908 8.61756 10.5662 8.42385C10.6944 8.34324 10.8485 8.31468 10.9971 8.34399C11.1457 8.3733 11.2775 8.45828 11.3654 8.58154C11.4534 8.7048 11.491 8.85702 11.4704 9.00706C11.4499 9.1571 11.3728 9.29362 11.2549 9.38869C10.9527 9.60228 10.6269 9.78058 10.2841 9.9201C10.2281 9.94163 10.1799 9.97966 10.1459 10.0291C10.1119 10.0786 10.0937 10.1373 10.0938 10.1973V14.5469C10.0938 14.6256 10.125 14.7011 10.1807 14.7568C10.2364 14.8125 10.3119 14.8438 10.3906 14.8438H11.2813C11.4387 14.8438 11.5898 14.7812 11.7011 14.6699C11.8125 14.5585 11.875 14.4075 11.875 14.25V13.3594C11.875 12.6217 12.779 11.7663 13.4392 11.1414L13.6214 10.9684C14.8096 9.834 15.4375 8.29804 15.4375 6.53127C15.4414 5.75095 15.2907 4.97758 14.994 4.25586C14.6973 3.53413 14.2606 2.87835 13.709 2.3264Z" fill="white"/>
</svg>
