<svg width="19" height="20" viewBox="0 0 19 20" fill="none" xmlns="http://www.w3.org/2000/svg">
<path d="M4.90003 11.38V18.21C4.90003 18.6184 4.73778 19.0101 4.44898 19.2989C4.16017 19.5878 3.76847 19.75 3.36003 19.75H1.55003C1.34696 19.7513 1.14563 19.7125 0.957629 19.6357C0.769632 19.5589 0.598681 19.4456 0.454618 19.3025C0.310555 19.1594 0.196224 18.9891 0.118207 18.8017C0.0401907 18.6142 2.84018e-05 18.4131 3.26833e-05 18.21V11.38C-0.00129583 11.1761 0.037889 10.9739 0.115313 10.7853C0.192738 10.5966 0.306859 10.4252 0.451056 10.281C0.595252 10.1368 0.766651 10.0227 0.955305 9.94528C1.14396 9.86786 1.34611 9.82867 1.55003 9.83H3.36003C3.56311 9.83 3.76419 9.87016 3.95168 9.94817C4.13918 10.0262 4.30939 10.1405 4.45253 10.2846C4.59566 10.4286 4.70889 10.5996 4.78569 10.7876C4.86249 10.9756 4.90135 11.1769 4.90003 11.38ZM11.6 1.8V18.21C11.6 18.4131 11.5599 18.6142 11.4819 18.8017C11.4038 18.9891 11.2895 19.1594 11.1454 19.3025C11.0014 19.4456 10.8304 19.5589 10.6424 19.6357C10.4544 19.7125 10.2531 19.7513 10.05 19.75H8.24003C7.83067 19.75 7.43793 19.5881 7.14754 19.2996C6.85714 19.011 6.69267 18.6193 6.69003 18.21V1.8C6.69265 1.38972 6.8568 0.996997 7.14691 0.706882C7.43703 0.416766 7.82976 0.252622 8.24003 0.25H10.05C10.4611 0.25 10.8554 0.413303 11.146 0.703984C11.4367 0.994666 11.6 1.38891 11.6 1.8ZM18.29 6.98V18.21C18.29 18.6184 18.1278 19.0101 17.839 19.2989C17.5502 19.5878 17.1585 19.75 16.75 19.75H14.94C14.737 19.7513 14.5356 19.7125 14.3476 19.6357C14.1596 19.5589 13.9887 19.4456 13.8446 19.3025C13.7006 19.1594 13.5862 18.9891 13.5082 18.8017C13.4302 18.6142 13.39 18.4131 13.39 18.21V6.98C13.39 6.77645 13.4301 6.5749 13.508 6.38684C13.5859 6.19879 13.7001 6.02792 13.844 5.88398C13.9879 5.74005 14.1588 5.62588 14.3469 5.54799C14.5349 5.47009 14.7365 5.43 14.94 5.43H16.79C17.1924 5.44299 17.5739 5.612 17.8539 5.90129C18.1338 6.19058 18.2902 6.57743 18.29 6.98Z" fill="white"/>
</svg>
