<svg width="89" height="92" viewBox="0 0 89 92" fill="none" xmlns="http://www.w3.org/2000/svg">
<path d="M81.2771 45.6862L81.0241 46L81.2771 46.3138L86.8872 53.2725C86.8878 53.2733 86.8884 53.2741 86.8891 53.2749C87.3998 53.923 87.7959 54.6256 88.0789 55.3838C88.3589 56.1342 88.5 56.9283 88.5 57.7695C88.5 58.6167 88.3721 59.4163 88.1186 60.1709C87.8646 60.9272 87.4987 61.6106 87.0211 62.2241C86.5427 62.8384 85.9645 63.3708 85.2836 63.8213C84.6031 64.2715 83.866 64.6093 83.0704 64.835C83.07 64.8351 83.0695 64.8352 83.0691 64.8354L74.4263 67.2152L74.0437 67.3205L74.0594 67.717C74.1199 69.2475 74.1955 70.7929 74.2862 72.3532C74.3763 73.9025 74.4363 75.4518 74.4664 77.001C74.4658 78.0151 74.2813 78.95 73.9174 79.8112C73.5515 80.6769 73.0325 81.4283 72.3584 82.0693C71.6762 82.7181 70.8939 83.2408 70.0086 83.6375C69.143 84.0254 68.1873 84.2227 67.1348 84.2227C66.2602 84.2227 65.3984 84.0691 64.547 83.7596C64.5461 83.7593 64.5452 83.759 64.5443 83.7587L56.1742 80.6159L55.8024 80.4763L55.5823 80.8069L50.6479 88.219L50.6456 88.2225C49.9669 89.2607 49.0951 90.055 48.0259 90.6134C46.9522 91.1742 45.7775 91.4709 44.4945 91.5C43.2471 91.4992 42.0912 91.2182 41.0194 90.6584C39.9516 90.1007 39.0631 89.2915 38.3526 88.2198L38.3521 88.219L33.4177 80.8069L33.1976 80.4763L32.8258 80.6159L24.4557 83.7587C24.4549 83.759 24.454 83.7593 24.4532 83.7596C23.6017 84.0691 22.7399 84.2227 21.8652 84.2227C20.8399 84.2227 19.8947 84.0392 19.0242 83.677C18.1489 83.3128 17.3732 82.7951 16.6945 82.1217C16.0158 81.4482 15.4946 80.6789 15.1279 79.8112C14.7622 78.946 14.5628 78.0067 14.5336 76.989C14.5337 75.4438 14.5787 73.8985 14.6685 72.3532C14.7591 70.7961 14.8496 69.254 14.9401 67.7269L14.9641 67.3227L14.5737 67.2152L5.92724 64.8344L5.92652 64.8342C5.10148 64.6083 4.36894 64.2716 3.72454 63.8268C3.07189 63.3763 2.50565 62.8423 2.0242 62.2241C1.54654 61.6106 1.18072 60.9272 0.926669 60.1709C0.67215 59.4132 0.529301 58.6106 0.500005 57.7612C0.500968 56.955 0.641309 56.1785 0.921131 55.4287C1.20441 54.6698 1.60139 53.9506 2.11446 53.2706L7.72293 46.3138L7.97592 46L7.72293 45.6862L2.10951 38.7233L2.10787 38.7213C1.0329 37.4019 0.5 35.911 0.5 34.2305C0.5 33.3833 0.627919 32.5837 0.8814 31.8291C1.13545 31.0728 1.50127 30.3893 1.97893 29.7759C2.46038 29.1577 3.02662 28.6237 3.67927 28.1732C4.32094 27.7302 5.0667 27.3934 5.92241 27.167L5.92242 27.167L5.92724 27.1657L14.5737 24.7848L14.9563 24.6795L14.9406 24.283C14.8801 22.7525 14.8045 21.2071 14.7138 19.6468C14.6237 18.0975 14.5637 16.5483 14.5336 14.9991C14.5342 13.985 14.7187 13.05 15.0826 12.1888C15.4485 11.3231 15.9675 10.5717 16.6416 9.93068C17.3238 9.28191 18.1061 8.75924 18.9914 8.36253C19.8571 7.97457 20.8127 7.77734 21.8652 7.77734C22.7399 7.77734 23.6019 7.93097 24.4534 8.2405C24.4541 8.24078 24.4549 8.24107 24.4557 8.24135L32.8258 11.3841L33.1976 11.5237L33.4177 11.1931L38.3521 3.78099L38.3544 3.77748C39.0331 2.73929 39.9049 1.94496 40.9741 1.38655C42.0478 0.825774 43.2225 0.529069 44.5055 0.500002C45.7529 0.500826 46.9088 0.781822 47.9806 1.34163C49.0484 1.89931 49.9369 2.70853 50.6474 3.78019L50.6479 3.78098L55.5823 11.1931L55.8024 11.5237L56.1742 11.3841L64.5443 8.24135C64.5451 8.24105 64.546 8.24075 64.5468 8.24046C65.3982 7.93096 66.2601 7.77734 67.1348 7.77734C68.1601 7.77734 69.1054 7.96075 69.9758 8.32295C70.8511 8.68723 71.6268 9.20487 72.3055 9.87835C72.9842 10.5518 73.5054 11.3211 73.8721 12.1888C74.2377 13.054 74.4371 13.9932 74.4664 15.0109C74.4663 16.5562 74.4213 18.1014 74.3315 19.6468C74.2409 21.2039 74.1504 22.746 74.0599 24.2731L74.0359 24.6773L74.4263 24.7848L83.0691 27.1646C83.0698 27.1648 83.0704 27.165 83.0711 27.1652C83.8664 27.3909 84.6033 27.7287 85.2836 28.1787C85.9618 28.6273 86.5213 29.1561 86.967 29.7643C87.4212 30.3841 87.7922 31.0768 88.0789 31.8448C88.3589 32.5951 88.5 33.3892 88.5 34.2305C88.5 35.911 87.9671 37.4019 86.8921 38.7213L86.8905 38.7233L81.2771 45.6862ZM38.3539 62.9316L38.7057 63.2797L39.0574 62.9314L64.8158 37.4158L65.1741 37.0609L64.8161 36.7056L59.6553 31.5845L59.3028 31.2347L58.9506 31.5849L38.706 51.7182L30.0499 43.0854L29.6977 42.7342L29.3447 43.0845L24.1839 48.2056L23.8257 48.5611L24.1845 48.916L38.3539 62.9316Z" fill="url(#paint0_radial_4_306)" stroke="white"/>
<defs>
<radialGradient id="paint0_radial_4_306" cx="0" cy="0" r="1" gradientUnits="userSpaceOnUse" gradientTransform="translate(44.5 46) rotate(90) scale(46 44.5)">
<stop stop-color="#28BBBC"/>
<stop offset="1" stop-color="#CDC6FF"/>
</radialGradient>
</defs>
</svg>
