<svg width="26" height="26" viewBox="0 0 26 26" fill="none" xmlns="http://www.w3.org/2000/svg">
<path d="M11.1069 1.6249C10.6763 1.6249 10.335 1.96615 10.335 2.38865V5.3949C10.335 5.50049 10.2931 5.60175 10.2184 5.67642C10.1437 5.75108 10.0425 5.79303 9.93688 5.79303C9.83129 5.79303 9.73003 5.75108 9.65536 5.67642C9.5807 5.60175 9.53875 5.50049 9.53875 5.3949V2.42115C9.53875 1.99865 9.21376 1.63303 8.79938 1.6249C8.69705 1.62163 8.59511 1.63897 8.49961 1.67589C8.40412 1.71281 8.31702 1.76855 8.2435 1.83979C8.16998 1.91104 8.11153 1.99635 8.07163 2.09063C8.03174 2.18492 8.0112 2.28627 8.01125 2.38865V5.3949C8.01125 5.50049 7.96931 5.60175 7.89465 5.67642C7.81998 5.75108 7.71872 5.79303 7.61313 5.79303C7.50754 5.79303 7.40628 5.75108 7.33161 5.67642C7.25695 5.60175 7.21501 5.50049 7.21501 5.3949V2.42115C7.21501 1.99865 6.89 1.63303 6.47563 1.6249C6.3733 1.62163 6.27136 1.63897 6.17586 1.67589C6.08037 1.71281 5.99327 1.76855 5.91975 1.83979C5.84623 1.91104 5.78778 1.99635 5.74788 2.09063C5.70799 2.18492 5.68745 2.28627 5.6875 2.38865V7.52365C5.68665 8.00098 5.79648 8.47201 6.00837 8.89974C6.22026 9.32747 6.52844 9.70024 6.90869 9.98878C7.59688 10.4925 7.59688 12.1151 7.59688 12.1151V23.3276C7.59688 23.9045 8.06813 24.3757 8.64501 24.3757H8.90501C9.48188 24.3757 9.95313 23.9045 9.95313 23.3276V12.1061C9.95313 12.1061 9.95313 10.4511 10.6308 9.98796C11.0138 9.69987 11.3246 9.32654 11.5384 8.89754C11.7522 8.46854 11.8631 7.99566 11.8625 7.51634V2.38865C11.8642 2.28856 11.8459 2.18913 11.8087 2.09622C11.7714 2.00331 11.716 1.91878 11.6456 1.84762C11.5752 1.77646 11.4912 1.72009 11.3987 1.68185C11.3062 1.6436 11.207 1.62424 11.1069 1.6249ZM18.7363 1.6249C19.7438 1.6249 20.5563 2.4374 20.5563 3.4449V14.5355L20.5481 14.5331V23.3195C20.5481 23.8963 20.0769 24.3676 19.5 24.3676H19.24C18.6631 24.3676 18.1919 23.8963 18.1919 23.3195V13.68C17.5733 13.3988 17.0489 12.9453 16.6815 12.3738C16.314 11.8023 16.1191 11.137 16.12 10.4576V4.24115C16.1119 2.7949 17.29 1.6249 18.7363 1.6249Z" fill="white"/>
</svg>
