<svg width="22" height="20" viewBox="0 0 22 20" fill="none" xmlns="http://www.w3.org/2000/svg">
<path d="M21.1415 9.99897L11.2288 16.1421L11.0563 4.14331L21.1415 9.99897ZM8.65719 11.1785L8.77217 19.1777L0.772995 19.2927L0.658016 11.2935L8.65719 11.1785ZM0.0682406 5.05133C0.0863466 6.31098 0.604104 7.51184 1.50761 8.38974C2.41112 9.26765 3.62637 9.75068 4.88602 9.73257C6.14567 9.71446 7.34653 9.19671 8.22443 8.2932C9.10234 7.38969 9.58537 6.17444 9.56726 4.91479C9.54915 3.65514 9.0314 2.45428 8.12789 1.57638C7.22438 0.698474 6.00913 0.215445 4.74948 0.233551C3.48983 0.251657 2.28897 0.769414 1.41107 1.67292C0.533163 2.57643 0.0501346 3.79168 0.0682406 5.05133Z" fill="white"/>
</svg>
