<svg width="24" height="24" viewBox="0 0 24 24" fill="none" xmlns="http://www.w3.org/2000/svg">
<path d="M18.6 1.50098L21.9 3.00098V8.50098C24.94 12.329 21.452 19.943 14.209 21.623C6.965 23.304 1 19.5 1 15.501C1 14 1.738 13.195 3 14C4.262 14.805 6.098 15.683 7.86 16.072C13.223 17.253 17.919 14.5 18.6 8.49998V1.50098Z" fill="white"/>
<path d="M8.23705 15.072C13.1101 16.253 17.3791 13.5 18.0001 7.5C17.3221 8.885 15.9361 11.203 11.0001 11.5C8.11705 11.673 5.55105 10.697 4.81705 10.348C4.08305 9.998 3.68005 10.5 3.89605 11.374C4.11205 12.248 5.15605 14.101 8.23605 15.071" fill="white"/>
</svg>
