<svg width="26" height="20" viewBox="0 0 26 20" fill="none" xmlns="http://www.w3.org/2000/svg">
<path d="M11.7408 19.3022C11.4133 19.6495 10.9613 19.8524 10.4842 19.8665C10.0071 19.8805 9.54399 19.7045 9.19666 19.3772L0.861689 11.5191C0.514449 11.1917 0.311486 10.7397 0.297434 10.2626C0.283381 9.78553 0.45939 9.32239 0.786753 8.97505L8.64476 0.640083C8.97445 0.302345 9.42359 0.107608 9.89546 0.0978121C10.3673 0.088016 10.8242 0.263946 11.1676 0.58771C11.511 0.911475 11.7135 1.35717 11.7315 1.8288C11.7495 2.30043 11.5815 2.76025 11.2638 3.10924L6.54132 8.27792L23.6339 7.77447C24.1111 7.76041 24.5743 7.93649 24.9217 8.26397C25.269 8.59145 25.4721 9.04351 25.4861 9.52069C25.5002 9.99787 25.3241 10.4611 24.9966 10.8085C24.6691 11.1558 24.2171 11.3589 23.7399 11.3729L6.64731 11.8764L11.6658 16.7581C12.0131 17.0856 12.216 17.5376 12.2301 18.0147C12.2441 18.4917 12.0681 18.9549 11.7408 19.3022Z" fill="white"/>
</svg>
