<svg width="23" height="15" viewBox="0 0 23 15" fill="none" xmlns="http://www.w3.org/2000/svg">
<path fill-rule="evenodd" clip-rule="evenodd" d="M3 1.8V3H1.8C1.32261 3 0.864773 3.18964 0.527208 3.52721C0.189642 3.86477 0 4.32261 0 4.8V13.2C0 13.6774 0.189642 14.1352 0.527208 14.4728C0.864773 14.8104 1.32261 15 1.8 15H18.2C18.4364 15 18.6704 14.9534 18.8888 14.863C19.1072 14.7725 19.3056 14.6399 19.4728 14.4728C19.6399 14.3056 19.7725 14.1072 19.863 13.8888C19.9534 13.6704 20 13.4364 20 13.2V12H21.2C22.192 12 23 11.192 23 10.2V1.8C23 0.808 22.192 0 21.2 0H4.8C3.808 0 3 0.808 3 1.8ZM5 2V3H18.2C18.4364 3 18.6704 3.04656 18.8888 3.13702C19.1072 3.22748 19.3056 3.36006 19.4728 3.52721C19.6399 3.69435 19.7725 3.89278 19.863 4.11117C19.9534 4.32956 20 4.56362 20 4.8V10H21V2H5ZM8 9C8 8.46957 8.21071 7.96086 8.58579 7.58579C8.96086 7.21071 9.46957 7 10 7C10.5304 7 11.0391 7.21071 11.4142 7.58579C11.7893 7.96086 12 8.46957 12 9C12 9.53043 11.7893 10.0391 11.4142 10.4142C11.0391 10.7893 10.5304 11 10 11C9.46957 11 8.96086 10.7893 8.58579 10.4142C8.21071 10.0391 8 9.53043 8 9Z" fill="white"/>
</svg>
