<svg width="24" height="24" viewBox="0 0 24 24" fill="none" xmlns="http://www.w3.org/2000/svg">
<path d="M6 19C5.46957 19 4.96086 18.7893 4.58579 18.4142C4.21071 18.0391 4 17.5304 4 17V13M6 19V20.5C6 20.6326 6.05268 20.7598 6.14645 20.8536C6.24021 20.9473 6.36739 21 6.5 21C6.63261 21 6.75979 20.9473 6.85355 20.8536C6.94732 20.7598 7 20.6326 7 20.5V19M6 19H7H6ZM18 19C18.5304 19 19.0391 18.7893 19.4142 18.4142C19.7893 18.0391 20 17.5304 20 17V13M18 19V20.5C18 20.6326 17.9473 20.7598 17.8536 20.8536C17.7598 20.9473 17.6326 21 17.5 21C17.3674 21 17.2402 20.9473 17.1464 20.8536C17.0527 20.7598 17 20.6326 17 20.5V19M18 19H17H18ZM4 13V7V13ZM4 13H12H4ZM20 13V7V13ZM20 13H12H20ZM7 19H17H7ZM4 7V5C4 4.46957 4.21071 3.96086 4.58579 3.58579C4.96086 3.21071 5.46957 3 6 3H18C18.5304 3 19.0391 3.21071 19.4142 3.58579C19.7893 3.96086 20 4.46957 20 5V7M4 7H12H4ZM20 7H12H20ZM12 7V13V7Z" fill="white"/>
<path d="M6 19C5.46957 19 4.96086 18.7893 4.58579 18.4142C4.21071 18.0391 4 17.5304 4 17V13M6 19V20.5C6 20.6326 6.05268 20.7598 6.14645 20.8536C6.24021 20.9473 6.36739 21 6.5 21C6.63261 21 6.75979 20.9473 6.85355 20.8536C6.94732 20.7598 7 20.6326 7 20.5V19M6 19H7M4 13V7M4 13H12M7 19H17M18 19C18.5304 19 19.0391 18.7893 19.4142 18.4142C19.7893 18.0391 20 17.5304 20 17V13M18 19V20.5C18 20.6326 17.9473 20.7598 17.8536 20.8536C17.7598 20.9473 17.6326 21 17.5 21C17.3674 21 17.2402 20.9473 17.1464 20.8536C17.0527 20.7598 17 20.6326 17 20.5V19M18 19H17M20 13V7M20 13H12M4 7V5C4 4.46957 4.21071 3.96086 4.58579 3.58579C4.96086 3.21071 5.46957 3 6 3H18C18.5304 3 19.0391 3.21071 19.4142 3.58579C19.7893 3.96086 20 4.46957 20 5V7M4 7H12M12 13V7M20 7H12" stroke="white" stroke-width="2" stroke-linecap="round" stroke-linejoin="round"/>
<path d="M4.5 13.5H19.5V18.5H4.5V13.5ZM6.93934 14.9393C6.65804 15.2206 6.5 15.6022 6.5 16C6.5 16.3978 6.65804 16.7794 6.93934 17.0607C7.22065 17.342 7.60218 17.5 8 17.5H8.001C8.39882 17.5 8.78036 17.342 9.06166 17.0607C9.34296 16.7794 9.501 16.3978 9.501 16C9.501 15.6022 9.34296 15.2206 9.06166 14.9393C8.78036 14.658 8.39883 14.5 8.001 14.5H8C7.60217 14.5 7.22064 14.658 6.93934 14.9393ZM16 14.5C15.6022 14.5 15.2206 14.658 14.9393 14.9393C14.658 15.2206 14.5 15.6022 14.5 16C14.5 16.3978 14.658 16.7794 14.9393 17.0607C15.2206 17.342 15.6022 17.5 16 17.5C16.3973 17.5 16.78 17.3423 17.0617 17.0607C17.343 16.7794 17.501 16.3978 17.501 16C17.501 15.6022 17.343 15.2206 17.0617 14.9393C16.78 14.6577 16.3973 14.5 16 14.5Z" fill="white" stroke="white"/>
<path d="M4.5 5C4.5 4.60218 4.65804 4.22064 4.93934 3.93934C5.22064 3.65804 5.60218 3.5 6 3.5H18C18.3978 3.5 18.7794 3.65804 19.0607 3.93934C19.342 4.22064 19.5 4.60218 19.5 5V6.5H4.5V5Z" fill="white" stroke="white"/>
</svg>
